<svg height="512pt" viewBox="0 -6 512 512" width="512pt" xmlns="http://www.w3.org/2000/svg"><path d="m500.757812 249.621094c.308594 103.777344-62.539062 192.917968-152.269531 231.175781-1.953125.832031-4.136719.902344-6.160156.265625-28.78125-9.085938-59.722656-14.027344-91.949219-14.027344-32.253906 0-63.21875 4.949219-92.023437 14.050782-1.972657.621093-4.105469.554687-6.011719-.257813-37.132812-15.8125-69.671875-40.355469-95.035156-71.023437-2.164063-2.621094-1.953125-6.449219.460937-8.84375 45.898438-45.53125 74.269531-108.703126 74.0625-178.503907-.164062-55.269531-18.042969-106.183593-48.261719-147.417969-2.878906-3.929687-2.226562-9.410156 1.429688-12.628906 43.984375-38.738281 101.65625-62.277344 164.847656-62.410156 138.648438-.289062 250.496094 110.96875 250.910156 249.621094zm0 0" fill="#ec74b6"/><path d="m152.269531 377.101562h196.21875v103.695313c-30.128906 12.847656-63.289062 19.960937-98.109375 19.960937-34.820312 0-67.976562-7.113281-98.109375-19.960937zm0 0" fill="#015aad"/><path d="m183.953125 455.332031v36.492188c-10.871094-2.984375-21.453125-6.664063-31.683594-11.023438v-103.699219h196.21875v57.792969h-144.097656c-11.289063 0-20.4375 9.148438-20.4375 20.4375zm0 0" fill="#004b92"/><path d="m512 92.996094v286.148437c0 16.933594-13.726562 30.660157-30.660156 30.660157h-412.789063c-35.796875-43.304688-57.308593-98.851563-57.308593-159.425782 0-74.925781 32.921874-142.15625 85.078124-188.039062h385.019532c16.933594 0 30.660156 13.726562 30.660156 30.65625zm0 0" fill="#528ed7"/><path d="m97.71875 409.804688h-40.410156c-8.46875-10.246094-16.136719-21.175782-22.910156-32.695313-21.859376-37.171875-14.09375-239.671875 19.890624-282.410156 9.285157-11.679688 19.59375-22.511719 30.789063-32.359375h33.6875c-37.09375 51.367187-59.492187 117.878906-59.492187 190.5625 0 57.675781 14.09375 111.476562 38.445312 156.902344zm0 0" fill="#0573cd"/><path d="m212.484375 104.921875v261.960937c0 5.644532-4.574219 10.21875-10.21875 10.21875h-167.855469c-21.859375-37.175781-34.410156-80.480468-34.410156-126.722656 0-58.84375 20.308594-112.9375 54.285156-155.679687h147.980469c5.644531 0 10.21875 4.578125 10.21875 10.222656zm0 0" fill="#fcf498"/><path d="m469.078125 377.101562h-265.707031c-5.644532 0-10.222656-4.574218-10.222656-10.21875v-261.960937c0-5.644531 4.578124-10.222656 10.222656-10.222656h265.707031c5.644531 0 10.21875 4.578125 10.21875 10.222656v261.960937c0 5.644532-4.574219 10.21875-10.21875 10.21875zm0 0" fill="#fdf7bd"/><path d="m438.417969 167.601562v10.21875c0 2.820313-2.285157 5.109376-5.109375 5.109376h-168.621094c-2.824219 0-5.109375-2.289063-5.109375-5.109376v-10.21875c0-2.824218 2.285156-5.109374 5.109375-5.109374h168.621094c2.824218 0 5.109375 2.285156 5.109375 5.109374zm-20.4375 35.765626h-137.964844c-2.820313 0-5.109375 2.289062-5.109375 5.113281v10.21875c0 2.820312 2.289062 5.109375 5.109375 5.109375h137.964844c2.820312 0 5.109375-2.289063 5.109375-5.109375v-10.21875c0-2.824219-2.289063-5.113281-5.109375-5.113281zm0 0" fill="#fdc273"/><path d="m234.027344 234.027344c0 56.441406-45.753906 102.195312-102.195313 102.195312-56.441406 0-102.195312-45.753906-102.195312-102.195312s45.753906-102.195313 102.195312-102.195313c56.441407 0 102.195313 45.753907 102.195313 102.195313zm0 0" fill="#fdd194"/><path d="m392.429688 280.015625v20.4375c0 2.824219-2.285157 5.109375-5.109376 5.109375h-76.644531c-2.824219 0-5.109375-2.285156-5.109375-5.109375v-20.4375c0-2.820313 2.285156-5.109375 5.109375-5.109375h76.644531c2.824219 0 5.109376 2.289062 5.109376 5.109375zm-268.328126-49.53125 75.09375-32.648437c4.09375-1.78125 4.09375-7.589844 0-9.371094l-75.09375-32.648438c-5.199218-2.261718-11.101562-2.261718-16.300781 0l-75.089843 32.648438c-4.097657 1.78125-4.097657 7.589844 0 9.371094l75.089843 32.648437c5.199219 2.257813 11.101563 2.257813 16.300781 0zm41.019532 3.949219-37.601563 15.320312c-7.417969 3.019532-15.722656 3.019532-23.136719 0l-37.601562-15.320312c-3.363281-1.371094-7.039062 1.101562-7.039062 4.730468v61.289063c0 2.824219 2.289062 5.109375 5.109374 5.109375h102.195313c2.824219 0 5.109375-2.285156 5.109375-5.109375v-61.289063c.003906-3.628906-3.675781-6.101562-7.035156-4.730468zm36.675781 31.710937v-44.734375c0-3.507812-3.515625-5.933594-6.796875-4.691406-1.945312.738281-3.230469 2.597656-3.238281 4.675781l-.128907 44.71875c-5.984374 3.480469-10.277343 12.964844-10.277343 24.121094h30.660156c0-11.121094-4.265625-20.582031-10.21875-24.089844zm0 0" fill="#fd7d43"/></svg>