<svg id="Layer_1" enable-background="new 0 0 512 512" height="512" viewBox="0 0 512 512" width="512" xmlns="http://www.w3.org/2000/svg"><g><path d="m497 281.375c-14.981 0-30.019 0-45 0l-17 72.5 17 72.5h45c8.284 0 15-6.716 15-15 0-13.911 0-100.997 0-115 0-8.284-6.716-15-15-15z" fill="#e7dfdd"/><path d="m435 353.875 17 72.5h45c8.284 0 15-6.716 15-15v-57.5z" fill="#d5d5d5"/><path d="m226 30.625s-9.754 0-15 0v58.362c-13.355-17.373-34.234-28.362-57.5-28.362-20.808 0-41.692 0-62.5 0v17.5c0 40.039 32.458 72.5 72.5 72.5h47.5v75.75l7.5 9 7.5-9 11.667-84.5z" fill="#8ee26b"/><path d="m298.5 60.625c-23.263 0-44.143 10.986-57.5 28.362 0-7.058 0-51.257 0-58.362-5.246 0-9.754 0-15 0v195.75l7.5 9 7.5-9c0-10.889 0-64.79 0-75.75h47.5c40.04 0 72.5-32.458 72.5-72.5 0-6.121 0-11.379 0-17.5-20.808 0-41.692 0-62.5 0z" fill="#00cbb1"/><path d="m0 226.375h452v255h-452z" fill="#f4f1f1"/><path d="m0 353.875h452v127.5h-452z" fill="#eceae7"/><path d="m30 256.375h301.5v195h-301.5z" fill="#8ee26b"/><path d="m30 353.875h301.5v97.5h-301.5z" fill="#00cbb1"/></g></svg>